<svg width="91" height="80" viewBox="0 0 91 80" fill="none" xmlns="http://www.w3.org/2000/svg">
<path d="M39.0715 61.1582L19.7614 79.9998V61.1582H39.0715Z" fill="#6D6BF5"/>
<path d="M84.0714 0H6.92857C3.37817 0 0.5 2.74471 0.5 6.13048V55.1743C0.5 58.5601 3.37817 61.3048 6.92857 61.3048H84.0714C87.6218 61.3048 90.5 58.5601 90.5 55.1743V6.13048C90.5 2.74471 87.6218 0 84.0714 0Z" fill="#6D6BF5"/>
<g clip-path="url(#clip0)">
<path d="M37.1991 42.702L35.7642 44.0704C35.5728 44.2529 35.3528 44.3441 35.1041 44.3441C34.8554 44.3441 34.6353 44.2529 34.444 44.0704L21.0703 31.3168C20.879 31.1344 20.7833 30.9246 20.7833 30.6874C20.7833 30.4502 20.879 30.2404 21.0703 30.0579L34.444 17.3043C34.6353 17.1219 34.8554 17.0306 35.1041 17.0306C35.3528 17.0306 35.5728 17.1219 35.7642 17.3043L37.1991 18.6727C37.3904 18.8552 37.4861 19.065 37.4861 19.3022C37.4861 19.5394 37.3904 19.7492 37.1991 19.9317L25.9204 30.6874L37.1991 41.4431C37.3904 41.6255 37.4861 41.8354 37.4861 42.0726C37.4861 42.3098 37.3904 42.5196 37.1991 42.702ZM54.1602 13.5001L43.4555 48.8325C43.3789 49.0697 43.2307 49.2476 43.0106 49.3662C42.7906 49.4848 42.5658 49.5076 42.3362 49.4346L40.5569 48.9694C40.3082 48.8964 40.1216 48.755 39.9972 48.5451C39.8729 48.3353 39.849 48.1118 39.9255 47.8746L50.6302 12.5422C50.7067 12.3051 50.855 12.1272 51.075 12.0086C51.2951 11.89 51.5199 11.8672 51.7495 11.9401L53.5288 12.4054C53.7775 12.4784 53.9641 12.6198 54.0884 12.8296C54.2128 13.0394 54.2367 13.2629 54.1602 13.5001ZM73.0154 31.3168L59.6417 44.0704C59.4503 44.2529 59.2303 44.3441 58.9816 44.3441C58.7329 44.3441 58.5128 44.2529 58.3215 44.0704L56.8866 42.702C56.6952 42.5196 56.5996 42.3098 56.5996 42.0726C56.5996 41.8354 56.6952 41.6255 56.8866 41.4431L68.1652 30.6874L56.8866 19.9317C56.6952 19.7492 56.5996 19.5394 56.5996 19.3022C56.5996 19.065 56.6952 18.8552 56.8866 18.6727L58.3215 17.3043C58.5128 17.1219 58.7329 17.0306 58.9816 17.0306C59.2303 17.0306 59.4503 17.1219 59.6417 17.3043L73.0154 30.0579C73.2067 30.2404 73.3023 30.4502 73.3023 30.6874C73.3023 30.9246 73.2067 31.1344 73.0154 31.3168Z" fill="white"/>
</g>
<defs>
<clipPath id="clip0">
<rect width="51.4286" height="49.0439" fill="white" transform="translate(21.3286 4.41406)"/>
</clipPath>
</defs>
</svg>
