<svg xmlns="http://www.w3.org/2000/svg" enable-background="new 0 0 100 100" viewBox="0 0 100 100"><path fill="#1857b8" d="M97.1697159,2.8446198c0.5028915,0.5028946,0.4193192,2.3471432-0.1676941,5.1137877
		C92.9361725,27.0295124,65.8174896,91.620369,60.53619,96.9016647c-6.203331,6.203331-10.8558311-39.8610992-10.8558311-39.8610992
		s2.01194-2.6825256,5.2393303-6.8321304c4.7362556-6.2454796,12.2807579-15.8858643,19.6581154-24.855299
		C86.5233612,15.586669,97.2956238,5.9882541,97.2956238,3.2216098C97.2956238,3.0544608,97.2536545,2.9285562,97.1697159,2.8446198
		z"/><path fill="#2b78ce" d="M97.1697159,2.8446198c0.0839386,0.0839365,0.1259079,0.209841,0.1259079,0.3769901
		c0,2.7666442-10.7722626,12.3650589-22.7178192,22.1315269C59.6979103,37.6338959,42.9319801,50.2921906,42.9319801,50.2921906
		s-18.9034119-1.8862152-30.8909378-4.9039459C5.376421,43.669899,0.8496454,41.6577797,3.0708842,39.4363594
		c5.9940343-5.9940338,88.440361-40.0705757,93.9311371-36.6754951C97.0859604,2.7608643,97.1279297,2.8028324,97.1697159,2.8446198
		z"/><path fill="#1a4584" d="M97.1697159,2.8446198c0.5028915,0.5028946,0.4193192,2.3471432-0.1676941,5.1137877
		c-3.6045609,4.778223-10.5625916,11.9875269-18.0651321,19.3229141
		c-8.8021011,8.7179871-18.3167648,17.645813-24.0172005,22.9271126
		c4.7362556-6.2454796,12.2807579-15.8858643,19.6581154-24.855299C86.5233612,15.586669,97.2956238,5.9882541,97.2956238,3.2216098
		C97.2956238,3.0544608,97.2536545,2.9285562,97.1697159,2.8446198z"/></svg>